<?xml version="1.0" encoding="UTF-8" standalone="no"?>
<!DOCTYPE svg PUBLIC "-//W3C//DTD SVG 1.1//EN" "http://www.w3.org/Graphics/SVG/1.1/DTD/svg11.dtd">
<svg width="100%" height="100%" viewBox="0 0 800 852" version="1.1" xmlns="http://www.w3.org/2000/svg" xmlns:xlink="http://www.w3.org/1999/xlink" xml:space="preserve" xmlns:serif="http://www.serif.com/" style="fill-rule:evenodd;clip-rule:evenodd;stroke-linejoin:round;stroke-miterlimit:2;">
    <g transform="matrix(1,0,0,1,-106.986505,-124.168222)">
        <g transform="matrix(0.74534,-0.666685,0.666685,0.74534,-198.537442,543.900499)">
            <path d="M10.131,588.21L291.405,489.156L308.96,499.407C294.861,518.85 280.431,546.203 265.904,575.908C268.76,602.064 288.335,608.742 324.337,596.283C327.067,575.501 346.212,548.68 378.67,516.963C397.76,532.068 420.448,533.979 447.739,519.013C456.523,521.374 463.644,520.411 469.011,515.938C494.583,590.352 540.869,650.718 605.739,698.478L649.564,629.088C595.35,592.945 561.454,544.734 552.688,481.595L616.247,480.955C620.325,485.953 626.136,488.642 633.29,489.54C647.724,485.237 660.203,479.278 670.195,471.216L809.999,471.344L812.946,463.655L900.596,463.399L907.387,470.191L913.154,461.733L1037.068,461.092L1051.292,467.884L1059.493,454.045C1064.201,455.896 1069.692,455.397 1075.767,453.148C1082.855,449.209 1080.569,443.101 1074.998,435.08L1056.674,432.389L1057.827,383.054L1039.246,383.182L1017.077,433.926L940.32,434.567L909.694,402.916L826.273,403.044L800.004,392.536L590.874,391.767L583.058,397.149L328.951,396.765L323.953,393.049L282.435,428.672L224.514,445.844L193.376,436.233L46.652,443.281C28.947,444.165 13.006,448.418 0,458.273L10.131,588.21Z" style="fill:white;"/>
        </g>
    </g>
</svg>
