<?xml version="1.0" encoding="UTF-8" standalone="no"?>
<!DOCTYPE svg PUBLIC "-//W3C//DTD SVG 1.1//EN" "http://www.w3.org/Graphics/SVG/1.1/DTD/svg11.dtd">
<svg width="100%" height="100%" viewBox="0 0 29 34" version="1.1" xmlns="http://www.w3.org/2000/svg" xmlns:xlink="http://www.w3.org/1999/xlink" xml:space="preserve" xmlns:serif="http://www.serif.com/" style="fill-rule:evenodd;clip-rule:evenodd;stroke-linejoin:round;stroke-miterlimit:2;">
    <g transform="matrix(1,0,0,1,0.0028,0.0087)">
        <g transform="matrix(1,0,0,1,-96.017,-134.24)">
            <path d="M107.24,154.21L96.816,159.823L104.166,149.934L96.014,147.395L104.433,145.991L98.754,134.899L108.777,142.383L111.316,134.231L112.719,142.583L123.61,137.104L116.394,146.993L124.479,149.733L115.859,151.002L121.539,161.96L109.913,153.141L107.24,154.21Z" style="fill:white;fill-opacity:0.4;fill-rule:nonzero;"/>
            <path d="M107.66,167.76C105.84,167.307 105.477,166.409 106.535,164.977C107.113,164.196 107.13,163.995 107.124,157.859C107.118,151.7 107.103,151.529 106.529,150.918C105.414,149.731 106.05,147.812 107.558,147.812C108.087,147.812 108.321,147.285 108.321,146.099C108.321,145.564 108.167,145.163 107.925,145.07C107.299,144.83 107.461,144.12 108.206,143.837C108.58,143.695 109.532,143.578 110.323,143.578C111.745,143.578 111.761,143.569 111.761,142.785C111.761,142.256 111.893,141.991 112.158,141.991C112.376,141.991 112.555,142.199 112.555,142.454C112.555,143.071 113.802,145.669 115.16,147.883L116.259,149.673L116.259,155.215C116.259,160.424 116.228,160.774 115.747,161.032C115.466,161.182 115.079,161.296 114.887,161.285C114.696,161.273 114.867,161.144 115.267,160.998L115.995,160.732L115.995,150.044L114.407,148.473C113.365,147.442 112.82,147.055 112.82,147.348C112.82,147.593 113.058,147.921 113.349,148.077C114.002,148.426 114.068,149.922 113.47,150.835C112.996,151.558 112.757,154.82 112.773,160.356C112.782,163.653 112.84,164.114 113.331,164.777C113.974,165.648 114.045,166.923 113.475,167.396C113.065,167.737 108.671,168.012 107.66,167.76L107.66,167.76Z" style="fill:white;fill-rule:nonzero;"/>
        </g>
    </g>
</svg>
