<?xml version="1.0" encoding="UTF-8" standalone="no"?>
<!DOCTYPE svg PUBLIC "-//W3C//DTD SVG 1.1//EN" "http://www.w3.org/Graphics/SVG/1.1/DTD/svg11.dtd">
<svg width="100%" height="100%" viewBox="0 0 13 17" version="1.1" xmlns="http://www.w3.org/2000/svg" xmlns:xlink="http://www.w3.org/1999/xlink" xml:space="preserve" xmlns:serif="http://www.serif.com/" style="fill-rule:evenodd;clip-rule:evenodd;stroke-linejoin:round;stroke-miterlimit:2;">
    <g transform="matrix(1,0,0,1,-1.2033,-1.619466)">
        <g transform="matrix(0.674413,0,0,0.674413,-63.16255,-107.406988)">
            <g transform="matrix(0.2221,0,0,0.2221,93.682,157.43)">
                <path d="M58,37.881C58,38.365 53.672,38.951 48.382,39.182C40.373,39.532 38.53,39.922 37.368,41.511C35.562,43.982 36.064,45.307 39.074,46.015C41.347,46.549 41.545,47.149 42.22,55.543C42.617,60.469 42.765,65.006 42.55,65.625C42.335,66.243 40.131,67.053 37.653,67.425C28.199,68.842 23,75.253 23,85.491C23,97.211 26.942,104.357 35.798,108.689C40.445,110.963 42.654,111.4 49.5,111.4C63.221,111.4 71.208,106.201 75.086,94.746L76.709,89.951L77.398,99.071C77.88,105.463 77.738,108.611 76.921,109.596C76.235,110.421 76.167,111 76.755,111C79.699,111 80.08,108.104 79.206,92.346L78.327,76.5L70.707,59.5C60.386,36.474 60.662,37.017 59.25,37.008C58.563,37.004 58,37.396 58,37.881M56.183,63.122C56.484,66.189 56.804,66.422 62.462,67.702C68.893,69.156 72.481,71.759 74.588,76.5C75.322,78.15 75.938,78.825 75.957,78C75.976,77.175 73.856,72.9 71.246,68.5L66.5,60.5L61.183,60.195L55.865,59.891L56.183,63.122" style="fill:white;"/>
            </g>
        </g>
    </g>
</svg>
