<?xml version="1.0" encoding="UTF-8" standalone="no"?>
<!DOCTYPE svg PUBLIC "-//W3C//DTD SVG 1.1//EN" "http://www.w3.org/Graphics/SVG/1.1/DTD/svg11.dtd">
<svg width="100%" height="100%" viewBox="0 0 1080 1080" version="1.1" xmlns="http://www.w3.org/2000/svg" xmlns:xlink="http://www.w3.org/1999/xlink" xml:space="preserve" xmlns:serif="http://www.serif.com/" style="fill-rule:evenodd;clip-rule:evenodd;stroke-linejoin:round;stroke-miterlimit:2;">
    <g transform="matrix(0.563465,-0.563465,0.563465,0.563465,540,540)">
        <g transform="matrix(1,0,0,1,-920.833333,-218.75)">
            <g transform="matrix(4.166667,0,0,4.166667,0,0)">
                <path d="M166.291,22.051C163.739,29.249 160.329,32.173 153.797,32.765C150.884,33.029 147.759,33.893 146.854,34.684C145.84,35.57 145.072,35.722 144.854,35.079C144.611,34.364 128.16,34.694 92.5,36.13C49.146,37.876 40.209,38.48 38.75,39.767C37.788,40.616 37,41.867 37,42.548C37,43.229 36.325,44.045 35.5,44.362C34.675,44.678 34,45.574 34,46.352C34,47.13 33.1,48.002 32,48.29C30.9,48.577 30,49.53 30,50.406C30,51.283 29.311,52 28.469,52C27.626,52 26.636,52.788 26.269,53.75C25.901,54.712 24.045,56.97 22.143,58.766L18.686,62.032L20.593,67.661C23.624,76.609 23.201,76.383 33.538,74.565C42.354,73.015 120.059,62.797 133.25,61.454C136.963,61.076 140,60.376 140,59.898C140,58.79 145.135,61.899 149.016,65.356C151.478,67.551 152,68.789 152,72.443C152,74.878 151.574,77.989 151.054,79.357C150.064,81.963 150.779,83.077 154.235,84.308C156.212,85.012 157.359,83.281 160.049,75.535C161.412,71.611 162.647,70.007 165.649,68.266C172.216,64.458 183.781,65.692 188.15,70.667C190.706,73.579 193,78.678 193,81.45C193,82.853 193.359,84 193.797,84C194.235,84 199.973,82.186 206.547,79.97C224.678,73.857 232.979,72.677 258.5,72.582C270.6,72.537 290.406,73.13 302.513,73.9C351.365,77.007 379.426,73.288 405.5,60.248C413.307,56.344 423,50.176 423,49.114C423,48.733 418.163,46.758 412.25,44.724C376.658,32.484 313.037,26.871 246.5,30.102C236.05,30.61 226.15,31.075 224.5,31.136C222.85,31.197 221.197,31.725 220.826,32.309C220.366,33.034 219.652,32.956 218.576,32.063C217.315,31.017 216.7,31.004 215.5,32C214.303,32.993 213.697,32.993 212.5,32C211.303,31.007 210.697,31.007 209.5,32C208.303,32.993 207.697,32.993 206.5,32C205.31,31.012 204.693,31.01 203.513,31.989C202.695,32.668 201.288,32.941 200.386,32.595C199.484,32.249 198.129,32.478 197.373,33.105C196.338,33.964 195.623,33.932 194.469,32.974C193.319,32.02 190.173,31.871 181.852,32.376C171.79,32.987 170.826,32.897 171.402,31.396C171.751,30.487 172.55,27.703 173.177,25.21C174.239,20.995 174.159,20.547 172.049,18.838C170.8,17.827 169.397,17 168.93,17C168.464,17 167.276,19.273 166.291,22.051M27.39,62.427C26.296,65.276 27.452,68.493 29.682,68.811C32.57,69.222 34.511,65.823 33,63C31.764,60.691 28.196,60.327 27.39,62.427" style="fill:white;"/>
            </g>
        </g>
    </g>
</svg>
