<?xml version="1.0" encoding="UTF-8" standalone="no"?>
<!DOCTYPE svg PUBLIC "-//W3C//DTD SVG 1.1//EN" "http://www.w3.org/Graphics/SVG/1.1/DTD/svg11.dtd">
<svg width="100%" height="100%" viewBox="0 0 204 150" version="1.1" xmlns="http://www.w3.org/2000/svg" xmlns:xlink="http://www.w3.org/1999/xlink" xml:space="preserve" xmlns:serif="http://www.serif.com/" style="fill-rule:evenodd;clip-rule:evenodd;stroke-linejoin:round;stroke-miterlimit:2;">
    <g transform="matrix(1.380415,0,0,1.380415,-43.094266,-29.101229)">
        <path d="M47.724,28.163C46.414,31.68 44.775,38.317 44.545,41.033C44.52,41.326 42.844,43.87 40.82,46.688C38.208,50.323 36.232,52.01 34.014,52.497C29.5,53.488 30.54,55.867 36.5,58.18C48.229,62.731 48.975,67.326 41.255,87.5C36.089,101.002 31.22,120.524 32.31,123.365C32.727,124.451 34.122,125 36.469,125C38.411,125 40,125.45 40,126C40,126.628 46.344,127 57.031,127C71.913,127 74.142,126.792 74.694,125.355C75.08,124.348 74.606,123.185 73.471,122.355C71.995,121.276 71.93,121 73.152,121C74.27,121 75.565,117.695 77.925,108.822C79.706,102.124 81.567,94.161 82.061,91.126C83.262,83.748 86.459,80.966 92.413,82.121C97.478,83.102 110.781,83.207 122.736,82.358L131.779,81.716L130.901,78.653C130.382,76.844 130.415,73.117 130.982,69.545C132.317,61.14 134.868,59 143.556,59C147.185,59 150,58.563 150,58C150,57.45 150.9,57 152,57C153.1,57 154,57.45 154,58C154,58.55 154.9,59 156,59C157.1,59 158,58.55 158,58C158,56.621 160.599,56.747 163.144,58.25C164.838,59.25 165.352,59.25 165.714,58.25C166.25,56.77 170,56.551 170,58C170,59.598 175.004,59.154 175.638,57.5C175.955,56.675 176.841,56 177.607,56C178.735,56 179,53.172 179,41.117L179,26.233L176.595,25.773C175.273,25.521 160.985,25.66 144.845,26.083C117.485,26.8 64.322,25.84 53.919,24.442L49.338,23.826L47.724,28.163M91.134,62.329C89.421,63.523 87.744,65.337 87.408,66.36C86.308,69.701 89.949,75.801 94.593,78.396C98.656,80.667 99.539,80.765 111.27,80.259C118.992,79.925 124.32,79.239 125.417,78.437C127.657,76.799 128.788,66.34 127.071,63.132C125.955,61.048 125.338,60.948 115.197,61.217L104.5,61.5L104.542,66.738C104.579,71.313 105.015,72.42 107.988,75.488L111.392,79L108.773,79C104.249,79 100.425,74.751 98.479,67.562C97.519,64.014 96.174,60.897 95.491,60.635C94.808,60.373 92.847,61.135 91.134,62.329" style="fill:white;"/>
    </g>
</svg>
