<?xml version="1.0" encoding="UTF-8" standalone="no"?>
<!DOCTYPE svg PUBLIC "-//W3C//DTD SVG 1.1//EN" "http://www.w3.org/Graphics/SVG/1.1/DTD/svg11.dtd">
<svg width="100%" height="100%" viewBox="0 0 1080 1080" version="1.1" xmlns="http://www.w3.org/2000/svg" xmlns:xlink="http://www.w3.org/1999/xlink" xml:space="preserve" xmlns:serif="http://www.serif.com/" style="fill-rule:evenodd;clip-rule:evenodd;stroke-linejoin:round;stroke-miterlimit:2;">
    <g transform="matrix(1,0,0,1,549.578,340.7)">
        <g transform="matrix(10.584222,0,0,10.584222,-567.845174,-535.798422)">
            <path d="M40.382,25.191C40.057,25.717 40.738,27.156 41.895,28.388C43.551,30.151 44,31.906 44,36.614C44,39.937 43.466,43.134 42.8,43.8C42.14,44.46 39.64,45 37.245,45L32.89,45L33.5,54.5L38.5,55.81C44.096,57.276 60.754,56.858 65.183,55.141C67.217,54.352 67.944,53.303 68.19,50.8C68.368,48.985 68.856,58.443 69.274,71.818C69.692,85.193 69.775,96.555 69.458,97.068C69.141,97.581 69.373,98 69.972,98C70.572,98 71.283,97.425 71.553,96.722C71.823,96.02 71.656,83.757 71.183,69.472C70.691,54.627 70.698,43.008 71.199,42.352C74.051,38.617 72.248,31.72 67.919,29.804C66.313,29.093 65,28.172 65,27.756C65,27.34 64.373,27 63.607,27C62.841,27 61.948,26.307 61.623,25.46C61.139,24.199 59.211,23.948 51.002,24.077C45.486,24.163 40.707,24.665 40.382,25.191M65,32.378C65,33.136 65.722,35.484 66.604,37.595C68.117,41.216 68.288,41.326 69.604,39.526C71.39,37.085 71.361,35.96 69.443,33.223C67.714,30.754 65,30.238 65,32.378M57.18,41.25C57.518,43.623 61.482,44.796 64.828,43.513C66.254,42.965 66.137,42.607 63.993,40.96C62.622,39.907 60.456,39.034 59.18,39.022C57.342,39.005 56.927,39.467 57.18,41.25M61.5,61.665C55.705,63.021 42.454,62.875 35.75,61.38L33,60.767L33,93.05L35.75,94.235C39.311,95.771 61.572,95.747 65.25,94.204L68,93.05L68,76.525C68,67.436 67.888,60.059 67.75,60.13C67.612,60.202 64.8,60.892 61.5,61.665M61.5,100.785C55.731,102.02 42.137,101.802 35.704,100.371L32.907,99.749L33.204,107.125L33.5,114.5L50.272,114.774C63.76,114.995 67.147,114.78 67.571,113.675C67.861,112.92 67.964,109.421 67.799,105.901L67.5,99.5L61.5,100.785" style="fill:white;"/>
        </g>
    </g>
</svg>
