<?xml version="1.0" encoding="UTF-8" standalone="no"?>
<!DOCTYPE svg PUBLIC "-//W3C//DTD SVG 1.1//EN" "http://www.w3.org/Graphics/SVG/1.1/DTD/svg11.dtd">
<svg width="100%" height="100%" viewBox="0 0 249 179" version="1.1" xmlns="http://www.w3.org/2000/svg" xmlns:xlink="http://www.w3.org/1999/xlink" xml:space="preserve" xmlns:serif="http://www.serif.com/" style="fill-rule:evenodd;clip-rule:evenodd;stroke-linejoin:round;stroke-miterlimit:2;">
    <g transform="matrix(1.30951,0,0,1.30951,-40.448259,-28.263535)">
        <path d="M72.701,31.704C67.951,31.976 65.733,32.532 65.344,33.547C65.037,34.346 63.679,35 62.326,35C60.973,35 58.307,36.189 56.402,37.643L52.937,40.285L53.219,51.383L53.5,62.48L58.7,64.347C61.56,65.374 65.722,67.897 67.95,69.954C71.613,73.335 72,74.156 72,78.544C72,82.47 70.671,86.207 65.025,98.156C56.614,115.955 54.054,123.267 53.003,132.5C52.564,136.35 51.904,140.426 51.537,141.557C51.106,142.88 51.516,144.387 52.684,145.778C54.28,147.68 56.381,148.126 70,149.458C78.525,150.292 87.194,151.211 89.265,151.501C92.552,151.962 93.173,151.715 94.157,149.555C95.07,147.551 94.949,146.571 93.52,144.39C90.887,140.372 91.999,130.15 96.77,114.5L100.734,101.5L115.367,101.223C128.023,100.984 130,101.156 130,102.493C130,103.849 132.627,104.006 151.25,103.77L172.5,103.5L172.789,93.511C172.948,88.017 173.398,83.209 173.789,82.826C174.18,82.444 181.651,81.118 190.392,79.881C203.788,77.984 206.358,77.345 206.759,75.815C207.02,74.817 207.856,74 208.617,74C209.733,74 210,71.097 210,58.95L210,43.901L206.649,40.45C204.058,37.783 202.486,37 199.717,37C196.88,37 195.693,36.377 194,34C191.598,30.627 187.006,29.896 184.789,32.535C181.518,36.429 180.7,37 178.397,37C177.044,37 175.678,37.675 175.362,38.5C174.866,39.792 170.11,40 141.001,40L107.217,40L106.589,37.5C106.244,36.125 105.443,35 104.81,35C104.176,35 102.947,34.376 102.079,33.613C100.333,32.08 84.303,31.038 72.701,31.704M107.418,77.132C107.01,77.792 106.698,81.654 106.724,85.714L106.772,93.096L103.823,93.685C101.971,94.056 101.226,94.626 101.821,95.221C102.782,96.182 112.589,95.768 123.5,94.305C128.718,93.605 129.543,93.2 129.827,91.195C130.006,89.927 129.627,88.256 128.984,87.48C128.324,86.686 127.964,83.983 128.157,81.285L128.5,76.5L118.33,76.216C111.228,76.017 107.936,76.294 107.418,77.132" style="fill:white;"/>
    </g>
</svg>
