<?xml version="1.0" encoding="utf-8"?>
<svg xmlns="http://www.w3.org/2000/svg" id="Layer_1" x="0" y="0" version="1.1" viewBox="0 0 1080 1080" xmlns:bx="https://boxy-svg.com">
  <defs>
    <clipPath id="clip-0">
      <path d="M 479.759 140.025 Q 540 105.245 600.241 140.025 L 856.267 287.842 Q 916.509 322.623 916.509 392.183 L 916.509 687.817 Q 916.509 757.377 856.267 792.158 L 600.241 939.975 Q 540 974.755 479.759 939.975 L 223.733 792.158 Q 163.491 757.378 163.491 687.817 L 163.491 392.183 Q 163.491 322.622 223.733 287.842 Z" bx:shape="n-gon 540 540 434.755 434.755 6 0.16 1@173eccfc" style="fill: rgb(216, 216, 216); stroke: rgb(0, 0, 0);"/>
    </clipPath>
    <clipPath id="clip-1">
      <path d="M 58.962 261.56 L 540.996 539.863 L 540.996 1096.467 L 58.962 1374.77 L -423.072 1096.468 L -423.072 539.863 Z" bx:shape="n-gon 58.962 818.165 556.605 556.605 6 0 1@702b5122" style="stroke: rgb(0, 0, 0); mix-blend-mode: color-burn; fill: rgb(64, 42, 230);"/>
    </clipPath>
    <clipPath id="clip-2">
      <path d="M 540 -572.791 L 1022.034 -294.488 L 1022.034 262.116 L 540 540.419 L 57.966 262.117 L 57.966 -294.489 Z" bx:shape="n-gon 540 -16.186 556.605 556.605 6 0 1@a6dcb694" style="stroke: rgb(0, 0, 0); mix-blend-mode: color-burn; fill: rgba(58, 44, 221, 0.776);"/>
    </clipPath>
    <clipPath id="clip-3">
      <path d="M 58.962 261.56 L 540.996 539.863 L 540.996 1096.467 L 58.962 1374.77 L -423.072 1096.468 L -423.072 539.863 Z" bx:shape="n-gon 58.962 818.165 556.605 556.605 6 0 1@702b5122" style="stroke: rgb(0, 0, 0); mix-blend-mode: color-burn; fill: rgb(64, 42, 230);"/>
    </clipPath>
    <mask id="mask-0">
      <rect x="76.697" y="591.457" width="542.982" height="292.257" style="fill: rgb(216, 216, 216); stroke: rgb(0, 0, 0); stroke-width: 0px;" transform="matrix(0.866026, 0.499999, -0.499999, 0.866026, 376.178661, 26.248198)"/>
    </mask>
    <clipPath id="clip-4">
      <path d="M 58.962 261.56 L 540.996 539.863 L 540.996 1096.467 L 58.962 1374.77 L -423.072 1096.468 L -423.072 539.863 Z" bx:shape="n-gon 58.962 818.165 556.605 556.605 6 0 1@702b5122" style="stroke: rgb(0, 0, 0); mix-blend-mode: color-burn; fill: rgb(64, 42, 230);"/>
    </clipPath>
    <mask id="mask-1">
      <rect x="76.697" y="591.457" width="542.982" height="292.257" style="fill: rgb(216, 216, 216); stroke: rgb(0, 0, 0); stroke-width: 0px;" transform="matrix(0.866026, 0.499999, -0.499999, 0.866026, 376.178661, 26.248198)"/>
    </mask>
  </defs>
  <style>.st0{fill:#71bfdd}.st1{fill:#d44e50}.st2{fill:#6195d9}.st4{fill:#fff}.st5{fill:none;stroke:#9d2323;stroke-width:30.0834;stroke-linecap:round;stroke-linejoin:round;stroke-miterlimit:10}.st7{fill:#8083bf}.st10{opacity:.21;fill:#c7a3e8}</style>
  <path d="M 479.759 141.025 Q 540 106.245 600.241 141.025 L 856.267 288.842 Q 916.509 323.623 916.509 393.183 L 916.509 688.817 Q 916.509 758.377 856.267 793.158 L 600.241 940.975 Q 540 975.755 479.759 940.975 L 223.733 793.158 Q 163.491 758.378 163.491 688.817 L 163.491 393.183 Q 163.491 323.622 223.733 288.842 Z" bx:shape="n-gon 540 541 434.755 434.755 6 0.16 1@9683d85f" style="clip-path: url(&quot;#clip-2&quot;); fill: rgb(113, 70, 211); stroke: rgb(113, 70, 211);"/>
  <path d="M 1022.03 261.56 L 1504.064 539.863 L 1504.064 1096.467 L 1022.03 1374.77 L 539.996 1096.468 L 539.996 539.863 Z" bx:shape="n-gon 1022.03 818.165 556.605 556.605 6 0 1@f4b4f196" style="transform-box: fill-box; transform-origin: 50% 50%; fill: rgb(57, 10, 127); clip-path: url(&quot;#clip-0&quot;); stroke: rgb(57, 10, 127);"/>
  <path d="M 480.759 140.025 C 520.92 116.838 561.08 116.838 601.241 140.025 L 857.267 287.842 C 897.428 311.029 917.509 345.81 917.509 392.183 L 917.509 687.817 C 917.509 734.19 897.428 768.971 857.267 792.158 L 601.241 939.975 C 561.08 963.162 520.92 963.162 480.759 939.975 L 224.733 792.158 C 184.572 768.971 164.491 734.191 164.491 687.817 L 164.491 392.183 C 164.491 345.809 184.572 311.029 224.733 287.842 Z" style="clip-path: url(&quot;#clip-1&quot;); fill: rgb(100, 18, 211); stroke: rgb(100, 18, 211);"/>
  <ellipse style="stroke: rgb(0, 0, 0); stroke-width: 0px; fill-opacity: 0.49; transform-box: fill-box; transform-origin: 50% 50%;" cx="331.447" cy="534.619" rx="43" transform="matrix(0.766023, 0.642813, -0.642813, 0.766023, 10.864831, 1.571347)" ry="39"/>
  <ellipse style="stroke: rgb(0, 0, 0); stroke-width: 0; fill-opacity: 0.49; transform-origin: 331.447px 534.619px;" cx="331.447" cy="534.619" rx="43" transform="matrix(0.766066, -0.642762, 0.642762, 0.766066, 408.851092, 1.565281)" ry="39"/>
  <path d="M 519.581 161.741 Q 540 149.951 560.419 161.741 L 811.281 306.588 Q 831.7 318.378 811.281 330.168 L 560.419 475.015 Q 540 486.805 519.581 475.015 L 268.719 330.168 Q 248.3 318.378 268.719 306.588 Z" bx:shape="n-gon 540 318.378 291.7 168.427 4 0.07 1@27c4b84a" style="stroke-width: 0px; mix-blend-mode: darken; stroke: rgb(0, 0, 0); fill: rgba(0, 0, 0, 0.416);"/>
  <path d="M 480.759 140.025 C 520.92 116.838 561.08 116.838 601.241 140.025 L 857.267 287.842 C 897.428 311.029 917.509 345.81 917.509 392.183 L 917.509 687.817 C 917.509 734.19 897.428 768.971 857.267 792.158 L 601.241 939.975 C 561.08 963.162 520.92 963.162 480.759 939.975 L 224.733 792.158 C 184.572 768.971 164.491 734.191 164.491 687.817 L 164.491 392.183 C 164.491 345.809 184.572 311.029 224.733 287.842 Z" style="stroke: rgb(100, 18, 211); clip-path: url(&quot;#clip-3&quot;); mask: url(&quot;#mask-0&quot;); fill: rgb(69, 0, 162);"/>
  <g style="" transform="matrix(-1, 0, 0, 1, 1082.000154, 0)">
    <path d="M 480.759 140.025 C 520.92 116.838 561.08 116.838 601.241 140.025 L 857.267 287.842 C 897.428 311.029 917.509 345.81 917.509 392.183 L 917.509 687.817 C 917.509 734.19 897.428 768.971 857.267 792.158 L 601.241 939.975 C 561.08 963.162 520.92 963.162 480.759 939.975 L 224.733 792.158 C 184.572 768.971 164.491 734.191 164.491 687.817 L 164.491 392.183 C 164.491 345.809 184.572 311.029 224.733 287.842 Z" style="stroke: rgb(100, 18, 211); clip-path: url(&quot;#clip-4&quot;); mask: url(&quot;#mask-1&quot;); fill: rgb(39, 19, 86);"/>
  </g>
</svg>