<?xml version="1.0" encoding="utf-8"?>
<svg xmlns="http://www.w3.org/2000/svg" id="Layer_1" x="0" y="0" version="1.1" viewBox="0 0 1080 1080">
  <style>.st0{fill:#71bfdd}.st1{fill:#d44e50}.st2{fill:#6195d9}.st4{fill:#fff}.st5{fill:none;stroke:#9d2323;stroke-width:30.0834;stroke-linecap:round;stroke-linejoin:round;stroke-miterlimit:10}.st7{fill:#8083bf}.st10{opacity:.21;fill:#c7a3e8}</style>
  <path d="M 859.149 405.396 C 780.434 261.594 625.336 293.51 583.021 326.143 C 553.256 348.915 525.105 345.15 493.906 326.143 C 444.777 296.02 283.224 265.897 217.957 405.575 C 139.422 573.762 229.791 907.089 403.358 907.089 C 403.358 907.089 446.749 916.95 517.933 870.869 C 530.664 862.621 547.16 863.339 558.994 870.869 C 630.357 916.592 688.272 907.089 688.272 907.089 C 831.177 906.909 948.442 568.921 859.149 405.396 Z" style="stroke-width: 1.793; fill: rgb(193, 38, 68);"/>
  <path d="M 539.806 331.881 L 539.805 216.051" style="stroke-width: 1.793; transform-origin: 539.807px 332.903px;" fill="#20B573"/>
  <path style="stroke: rgb(0, 0, 0); stroke-width: 0; fill: rgb(247, 189, 198);" d="M 502.766 298.357 C 502.766 298.357 509.057 268.133 536.854 197.333 C 548.697 167.168 600.15 171.321 590.54 206.315 C 580.473 242.973 562.168 298.357 562.168 298.357 L 502.766 298.357 Z"/>
  <path d="M 886.044 390.872 C 827.591 284.007 734.712 268.049 684.507 268.049 C 641.653 268.049 536.854 298.357 536.854 298.357 C 514.261 284.551 441.37 270.38 387.579 270.38 C 297.21 270.38 227.102 313.772 190.345 392.665 C 135.657 509.572 154.842 704.834 233.198 827.657 C 278.204 898.303 336.119 936.136 400.848 937.212 C 403.896 937.75 408.558 938.108 414.654 938.108 C 435.274 938.108 478.128 932.729 534.608 896.151 C 538.015 894 540.884 895.075 542.677 896.151 C 599.517 932.55 649.722 938.108 674.645 938.108 C 681.996 938.108 687.555 937.57 690.782 937.212 C 747.801 936.136 803.385 894.896 847.494 820.664 C 917.423 702.503 950.953 509.572 886.044 390.872 Z M 794.958 789.465 C 762.145 844.691 723.416 876.248 688.631 876.248 C 687.196 876.248 685.403 876.428 683.969 876.607 C 683.072 876.786 679.845 877.145 674.645 877.145 C 656.356 877.145 619.419 873.021 575.669 844.87 C 553.794 830.885 523.492 830.705 501.616 844.87 C 456.611 873.918 425.95 877.145 414.833 877.145 C 412.502 877.145 410.709 876.966 410.351 876.966 C 408.199 876.428 405.868 876.248 403.537 876.248 C 348.132 876.248 308.327 831.96 284.659 795.024 C 217.419 689.414 199.489 517.102 245.57 418.485 C 279.279 346.405 341.498 331.343 387.579 331.343 C 426.309 331.343 461.632 342.102 478.128 352.322 C 523.671 380.293 564.552 379.038 601.668 350.529 C 612.785 341.922 644.163 329.192 684.507 329.192 C 729.333 329.192 791.372 344.97 832.612 420.278 C 886.403 518.357 854.846 688.338 794.958 789.465 Z" style="stroke-width: 1.793; fill: rgb(193, 38, 68);"/>
  <path d="M 788.144 569.638 C 779.896 569.638 773.083 563.004 772.904 554.577 C 772.186 494.51 757.125 453.449 728.257 432.292 C 691.679 405.575 644.163 419.561 643.805 419.74 C 635.736 422.25 627.309 417.589 624.798 409.52 C 622.288 401.451 626.95 393.024 635.019 390.514 C 637.529 389.796 697.775 372.045 746.367 407.727 C 783.303 434.802 802.668 484.11 803.565 554.218 C 803.565 562.466 796.751 569.459 788.144 569.638 C 788.324 569.638 788.324 569.638 788.144 569.638 Z" style="stroke-width: 1.793;" fill="#FFFFFF"/>
</svg>