<?xml version="1.0" encoding="utf-8"?>
<svg xmlns="http://www.w3.org/2000/svg" id="Layer_1" x="0" y="0" version="1.1" viewBox="0 0 1080 1080">
  <style>.st0{fill:#71bfdd}.st1{fill:#d44e50}.st2{fill:#6195d9}.st4{fill:#fff}.st5{fill:none;stroke:#9d2323;stroke-width:30.0834;stroke-linecap:round;stroke-linejoin:round;stroke-miterlimit:10}.st7{fill:#8083bf}.st10{opacity:.21;fill:#c7a3e8}</style>
  <g transform="matrix(1, 0, 0, 1, -0.000259, -58.937624)">
    <text style="white-space: pre; fill: rgb(51, 51, 51); font-family: Arial, sans-serif; font-size: 50.2px; stroke-width: 1.793;" x="400.301" y="245.94"> </text>
    <path d="M 859.149 464.334 C 780.434 320.532 625.336 352.448 583.021 385.081 C 553.256 407.853 525.105 404.088 493.906 385.081 C 444.777 354.958 283.224 324.835 217.957 464.513 C 139.422 632.7 229.791 966.027 403.358 966.027 C 403.358 966.027 446.749 975.888 517.933 929.807 C 530.664 921.559 547.16 922.277 558.994 929.807 C 630.357 975.53 688.272 966.027 688.272 966.027 C 831.177 965.847 948.442 627.859 859.149 464.334 Z" style="stroke-width: 1.793; fill: rgb(255, 228, 74);"/>
    <path d="M 539.807 390.818 L 539.807 274.988" fill="#20B573" style="stroke-width: 1.793; transform-origin: 539.807px 332.903px;"/>
    <path style="stroke: rgb(0, 0, 0); stroke-width: 0px; fill: rgb(247, 245, 189);" d="M 502.766 357.295 C 502.766 357.295 509.057 327.071 536.854 256.271 C 548.697 226.106 600.15 230.259 590.54 265.253 C 580.473 301.911 562.168 357.295 562.168 357.295 L 502.766 357.295 Z"/>
    <path d="M 886.044 449.81 C 827.591 342.945 734.712 326.987 684.507 326.987 C 641.653 326.987 536.854 357.295 536.854 357.295 C 514.261 343.489 441.37 329.318 387.579 329.318 C 297.21 329.318 227.102 372.71 190.345 451.603 C 135.657 568.51 154.842 763.772 233.198 886.595 C 278.204 957.241 336.119 995.074 400.848 996.15 C 403.896 996.688 408.558 997.046 414.654 997.046 C 435.274 997.046 478.128 991.667 534.608 955.089 C 538.015 952.938 540.884 954.013 542.677 955.089 C 599.517 991.488 649.722 997.046 674.645 997.046 C 681.996 997.046 687.555 996.508 690.782 996.15 C 747.801 995.074 803.385 953.834 847.494 879.602 C 917.423 761.441 950.953 568.51 886.044 449.81 Z M 794.958 848.403 C 762.145 903.629 723.416 935.186 688.631 935.186 C 687.196 935.186 685.403 935.366 683.969 935.545 C 683.072 935.724 679.845 936.083 674.645 936.083 C 656.356 936.083 619.419 931.959 575.669 903.808 C 553.794 889.823 523.492 889.643 501.616 903.808 C 456.611 932.856 425.95 936.083 414.833 936.083 C 412.502 936.083 410.709 935.904 410.351 935.904 C 408.199 935.366 405.868 935.186 403.537 935.186 C 348.132 935.186 308.327 890.898 284.659 853.962 C 217.419 748.352 199.489 576.04 245.57 477.423 C 279.279 405.343 341.498 390.281 387.579 390.281 C 426.309 390.281 461.632 401.04 478.128 411.26 C 523.671 439.231 564.552 437.976 601.668 409.467 C 612.785 400.86 644.163 388.13 684.507 388.13 C 729.333 388.13 791.372 403.908 832.612 479.216 C 886.403 577.295 854.846 747.276 794.958 848.403 Z" style="stroke-width: 1.793; fill: rgb(255, 228, 74);"/>
    <path d="M 788.144 628.576 C 779.896 628.576 773.083 621.942 772.904 613.515 C 772.186 553.448 757.125 512.387 728.257 491.23 C 691.679 464.513 644.163 478.499 643.805 478.678 C 635.736 481.188 627.309 476.527 624.798 468.458 C 622.288 460.389 626.95 451.962 635.019 449.452 C 637.529 448.734 697.775 430.983 746.367 466.665 C 783.303 493.74 802.668 543.048 803.565 613.156 C 803.565 621.404 796.751 628.397 788.144 628.576 C 788.324 628.576 788.324 628.576 788.144 628.576 Z" fill="#FFFFFF" style="stroke-width: 1.793;"/>
  </g>
  <path d="M 686.479 113.256 C 686.479 113.256 502.692 98.195 542.498 294.354 C 542.498 294.354 712.657 323.939 686.479 113.256 Z" fill="#2ECC71" style="stroke-width: 1.793; visibility: hidden;"/>
</svg>